<svg width="18" height="20" viewBox="0 0 18 20" fill="none" xmlns="http://www.w3.org/2000/svg">
<g clip-path="url(#clip0_2_21)">
<path d="M9 10.625C6.35833 10.625 4.20833 8.475 4.20833 5.83333C4.20833 3.19167 6.35833 1.04167 9 1.04167C11.6417 1.04167 13.7917 3.19167 13.7917 5.83333C13.7917 8.475 11.6417 10.625 9 10.625ZM9 2.29167C7.05 2.29167 5.45833 3.88333 5.45833 5.83333C5.45833 7.78333 7.05 9.375 9 9.375C10.95 9.375 12.5417 7.78333 12.5417 5.83333C12.5417 3.88333 10.95 2.29167 9 2.29167Z" fill="#13333E"/>
<path d="M16.1584 18.9583C15.8167 18.9583 15.5334 18.675 15.5334 18.3333C15.5334 15.4583 12.6002 13.125 9.00016 13.125C5.40012 13.125 2.4668 15.4583 2.4668 18.3333C2.4668 18.675 2.18346 18.9583 1.8418 18.9583C1.50013 18.9583 1.2168 18.675 1.2168 18.3333C1.2168 14.775 4.70845 11.875 9.00016 11.875C13.2918 11.875 16.7834 14.775 16.7834 18.3333C16.7834 18.675 16.5001 18.9583 16.1584 18.9583Z" fill="#13333E"/>
</g>
<defs>
<clipPath id="clip0_2_21">
<rect width="18" height="20" fill="white"/>
</clipPath>
</defs>
</svg>
